<svg width="84" height="65" viewBox="0 0 84 65" fill="none" xmlns="http://www.w3.org/2000/svg">
<g>
<path fill-rule="evenodd" clip-rule="evenodd" d="M50.9226 13.6553C58.8732 10.7194 67.274 14.0227 71.1032 20.0854L83.9596 17.9117C78.5776 4.1366 62.2808 -3.89154 46.5838 1.90515C32.9663 6.9331 28.0689 19.2491 26.5056 28.818C16.2246 24.3341 6.34406 28.3431 2.01412 37.2386C-0.47237 42.347 -0.66557 48.1392 1.48425 53.13C5.69496 62.9074 15.5661 65.7888 22.9557 64.3285C24.1913 64.0844 33.2149 62.5505 36.9022 50.3618C39.0536 43.2511 38.0327 38.926 38.415 34.5213C38.8657 27.9539 41.1481 17.2646 50.9227 13.6553M20.3403 51.0954C18.6132 51.4369 15.3075 51.1257 13.873 47.7945C12.3481 44.2535 15.5666 36.1631 24.6472 43.3498C24.2256 46.3108 23.0838 50.5534 20.3403 51.0954Z" fill="#F2A900"/>
<path d="M71.1227 37.7402C64.7174 48.0718 53.4364 47.0929 43.1764 40.5957C43.1327 44.1832 42.8413 48.9586 41.0605 53.7472C60.6578 63.4951 77.8086 55.3975 84.0192 39.9208L71.1227 37.7402Z" fill="#F2A900"/>
</g>
</svg>
